<svg xmlns="http://www.w3.org/2000/svg" viewBox="0 0 64 64" width="64" height="64"><defs><filter id="sh" x="-20%" y="-20%" width="140%" height="150%"><feDropShadow dx="0" dy="1.6" stdDeviation="1.4" flood-color="#000" flood-opacity=".55"/></filter><linearGradient id="g1" x1="58.68240888334651%" y1="0.7596123493895988%" x2="41.31759111665349%" y2="99.2403876506104%"><stop offset="0" stop-color="#f1eadb"/><stop offset=".55" stop-color="#bfb39a"/><stop offset="1" stop-color="#6f6350"/></linearGradient></defs><g filter="url(#sh)"><g transform="translate(30 26) rotate(-30)"><rect x="-14" y="-3" width="28" height="6" rx="3" fill="url(#g1)" stroke="#07080a" stroke-width=".9" stroke-linejoin="round" stroke-linecap="round"/><circle cx="-14" cy="-3.5" r="3.6" fill="url(#g1)" stroke="#07080a" stroke-width=".9" stroke-linejoin="round" stroke-linecap="round"/><circle cx="-14" cy="3.5" r="3.6" fill="url(#g1)" stroke="#07080a" stroke-width=".9" stroke-linejoin="round" stroke-linecap="round"/><circle cx="14" cy="-3.5" r="3.6" fill="url(#g1)" stroke="#07080a" stroke-width=".9" stroke-linejoin="round" stroke-linecap="round"/><circle cx="14" cy="3.5" r="3.6" fill="url(#g1)" stroke="#07080a" stroke-width=".9" stroke-linejoin="round" stroke-linecap="round"/><path d="M-8 -1 h4 M2 1 h6" stroke="rgba(0,0,0,.25)" stroke-width=".8"/></g><g transform="translate(36 42) rotate(20)"><rect x="-14" y="-3" width="28" height="6" rx="3" fill="url(#g1)" stroke="#07080a" stroke-width=".9" stroke-linejoin="round" stroke-linecap="round"/><circle cx="-14" cy="-3.5" r="3.6" fill="url(#g1)" stroke="#07080a" stroke-width=".9" stroke-linejoin="round" stroke-linecap="round"/><circle cx="-14" cy="3.5" r="3.6" fill="url(#g1)" stroke="#07080a" stroke-width=".9" stroke-linejoin="round" stroke-linecap="round"/><circle cx="14" cy="-3.5" r="3.6" fill="url(#g1)" stroke="#07080a" stroke-width=".9" stroke-linejoin="round" stroke-linecap="round"/><circle cx="14" cy="3.5" r="3.6" fill="url(#g1)" stroke="#07080a" stroke-width=".9" stroke-linejoin="round" stroke-linecap="round"/><path d="M-8 -1 h4 M2 1 h6" stroke="rgba(0,0,0,.25)" stroke-width=".8"/></g><path d="M44 14 l3 -3 l2 5 l-4 2 z" fill="url(#g1)" stroke="#07080a" stroke-width=".9" stroke-linejoin="round" stroke-linecap="round"/><path d="M14 50 l4 -4 l3 3 l-4 4 z" fill="url(#g1)" stroke="#07080a" stroke-width=".9" stroke-linejoin="round" stroke-linecap="round"/></g></svg>