<svg xmlns="http://www.w3.org/2000/svg" viewBox="0 0 64 64" width="64" height="64"><defs><filter id="sh" x="-20%" y="-20%" width="140%" height="150%"><feDropShadow dx="0" dy="1.6" stdDeviation="1.4" flood-color="#000" flood-opacity=".55"/></filter><linearGradient id="g1" x1="3.0153689607045777%" y1="32.89899283371656%" x2="96.98463103929542%" y2="67.10100716628344%"><stop offset="0" stop-color="#8f96a3"/><stop offset=".55" stop-color="#4a4e58"/><stop offset="1" stop-color="#23252b"/></linearGradient><linearGradient id="g2" x1="24.999999999999993%" y1="6.698729810778069%" x2="75%" y2="93.30127018922192%"><stop offset="0" stop-color="#8a6238"/><stop offset=".55" stop-color="#4f351e"/><stop offset="1" stop-color="#2b1b10"/></linearGradient><linearGradient id="g3" x1="0%" y1="50%" x2="100%" y2="50%"><stop offset="0" stop-color="#9a6b3f"/><stop offset=".55" stop-color="#5a3c22"/><stop offset="1" stop-color="#2f1e10"/></linearGradient></defs><g filter="url(#sh)"><path d="M22 56 L 30 30" stroke="url(#g2)" stroke-width="3.4" stroke-linecap="round"/><path d="M24 50 l4 1.2 M25.5 45 l4 1.2" stroke="url(#g3)" stroke-width="2" stroke-linecap="round"/><path d="M30 30 C 26 14, 40 8, 50 16 C 42 12, 34 16, 34 28 Z" fill="url(#g1)" stroke="#07080a" stroke-width=".9" stroke-linejoin="round" stroke-linecap="round"/><path d="M30 30 C 26 14, 40 8, 50 16" stroke="#d5dbe6" stroke-width="1.2" fill="none" opacity=".8"/><path d="M50 16 C 53 19, 52 23, 48 24" stroke="url(#g1)" stroke-width="2.6" fill="none" stroke-linecap="round"/><circle cx="30.5" cy="30" r="2.2" fill="#c08c2c" stroke="#07080a" stroke-width=".9" stroke-linejoin="round" stroke-linecap="round"/><path d="M14 40 q 6 2 10 -2" stroke="#8a6238" stroke-width="1" fill="none" stroke-dasharray="1.5 1.2"/><ellipse cx="38" cy="15" rx="4" ry="1" transform="rotate(-20 38 15)" fill="#fff" opacity="0.35"/></g></svg>