<svg xmlns="http://www.w3.org/2000/svg" viewBox="0 0 64 64" width="64" height="64"><defs><filter id="sh" x="-20%" y="-20%" width="140%" height="150%"><feDropShadow dx="0" dy="1.6" stdDeviation="1.4" flood-color="#000" flood-opacity=".55"/></filter><linearGradient id="g1" x1="58.68240888334651%" y1="0.7596123493895988%" x2="41.31759111665349%" y2="99.2403876506104%"><stop offset="0" stop-color="#ff8a7a"/><stop offset=".55" stop-color="#c8161a"/><stop offset="1" stop-color="#4a0608"/></linearGradient><linearGradient id="g2" x1="0%" y1="50%" x2="100%" y2="50%"><stop offset="0" stop-color="#e6f0ff"/><stop offset=".55" stop-color="#8aa3c4"/><stop offset="1" stop-color="#3b4a62"/></linearGradient><filter id="gl" x="-40%" y="-40%" width="180%" height="180%"><feGaussianBlur stdDeviation="2.2" result="b"/><feFlood flood-color="#ff4a3a" flood-opacity=".9"/><feComposite in2="b" operator="in"/><feMerge><feMergeNode/><feMergeNode in="SourceGraphic"/></feMerge></filter></defs><g filter="url(#sh)"><path d="M26 12 L 38 12 L 38 24 L 46 44 C 48 50, 44 54, 38 54 L 26 54 C 20 54, 16 50, 18 44 Z" fill="url(#g2)" opacity=".55" stroke="#07080a" stroke-width=".9" stroke-linejoin="round" stroke-linecap="round"/><g filter="url(#gl)"><path d="M21.5 38 L 42.5 38 L 46 46 C 47 51, 43 53, 38 53 L 26 53 C 21 53, 17 51, 18 46 Z" fill="url(#g1)"/></g><path d="M22 36 h20" stroke="#f0d27a" stroke-width="1.4" opacity=".9"/><path d="M26 12 L 38 12 L 38 24 L 46 44 C 48 50, 44 54, 38 54 L 26 54 C 20 54, 16 50, 18 44 Z" fill="none" stroke="#07080a" stroke-width=".9" stroke-linejoin="round" stroke-linecap="round"/><rect x="25" y="8" width="14" height="5" rx="1.2" fill="#c09a48" stroke="#07080a" stroke-width=".9" stroke-linejoin="round" stroke-linecap="round"/><circle cx="35" cy="44" r="1.4" fill="rgba(255,255,255,.45)"/><circle cx="29" cy="47" r=".9" fill="rgba(255,255,255,.4)"/><ellipse cx="24" cy="30" rx="1.4" ry="8" transform="rotate(6 24 30)" fill="#fff" opacity="0.4"/></g></svg>